<svg xmlns="http://www.w3.org/2000/svg" viewBox="0 0 640 360" role="img" aria-labelledby="title desc">
  <title id="title">Tetris game cover</title>
  <desc id="desc">Colorful falling blocks above a dark puzzle board.</desc>
  <rect width="640" height="360" fill="#111827"/>
  <g opacity="0.42" stroke="#273244" stroke-width="2">
    <path d="M0 72h640M0 144h640M0 216h640M0 288h640"/>
    <path d="M80 0v360M160 0v360M240 0v360M320 0v360M400 0v360M480 0v360M560 0v360"/>
  </g>
  <g stroke="#111827" stroke-width="6">
    <rect x="292" y="44" width="52" height="52" fill="#38bdf8"/>
    <rect x="344" y="44" width="52" height="52" fill="#38bdf8"/>
    <rect x="396" y="44" width="52" height="52" fill="#38bdf8"/>
    <rect x="448" y="44" width="52" height="52" fill="#38bdf8"/>
    <rect x="188" y="116" width="52" height="52" fill="#f97316"/>
    <rect x="240" y="116" width="52" height="52" fill="#f97316"/>
    <rect x="292" y="116" width="52" height="52" fill="#f97316"/>
    <rect x="292" y="168" width="52" height="52" fill="#f97316"/>
    <rect x="396" y="168" width="52" height="52" fill="#a3e635"/>
    <rect x="448" y="168" width="52" height="52" fill="#a3e635"/>
    <rect x="344" y="220" width="52" height="52" fill="#a3e635"/>
    <rect x="396" y="220" width="52" height="52" fill="#a3e635"/>
    <rect x="136" y="220" width="52" height="52" fill="#e879f9"/>
    <rect x="188" y="220" width="52" height="52" fill="#e879f9"/>
    <rect x="240" y="220" width="52" height="52" fill="#e879f9"/>
    <rect x="188" y="272" width="52" height="52" fill="#e879f9"/>
  </g>
  <text x="48" y="76" fill="#f8fafc" font-family="Trebuchet MS, Verdana, sans-serif" font-size="36" font-weight="700">TETRIS</text>
</svg>
